<svg xmlns="http://www.w3.org/2000/svg" viewBox="0 0 120 113.95"><defs><style>.cls-1{fill:#d9d8d7}.cls-2{fill:#f67656}.cls-3{fill:#fff}.cls-4{fill:#efefef}.cls-5{fill:#84d7e8}.cls-6{fill:#3f4a5a}</style></defs><title>GVision</title><g id="Layer_2" data-name="Layer 2"><g id="Layer_1-2" data-name="Layer 1"><rect width="2.26" height="8.17" x="57.06" y="19.31" class="cls-1"/><path d="M58.19,20.44a3.53,3.53,0,1,1,3.53-3.53A3.53,3.53,0,0,1,58.19,20.44Zm0-4.8a1.27,1.27,0,1,0,1.27,1.27A1.27,1.27,0,0,0,58.19,15.65Z" class="cls-1"/><polygon points="49.35 27.48 47.09 27.48 47.09 21.97 43.46 18.34 43.46 5.93 45.72 5.93 45.72 17.4 49.35 21.03 49.35 27.48" class="cls-1"/><path d="M44.59,7.05a3.53,3.53,0,1,1,3.53-3.52A3.53,3.53,0,0,1,44.59,7.05Zm0-4.8a1.27,1.27,0,1,0,1.27,1.27A1.27,1.27,0,0,0,44.59,2.26Z" class="cls-1"/><rect width="2.26" height="12.78" x="37.12" y="14.7" class="cls-1"/><path d="M38.25,15.83a3.53,3.53,0,1,1,3.53-3.53A3.53,3.53,0,0,1,38.25,15.83Zm0-4.8a1.27,1.27,0,1,0,1.27,1.27A1.27,1.27,0,0,0,38.25,11Z" class="cls-1"/><polygon points="29.41 27.48 27.15 27.48 27.15 15.12 20.05 8.03 21.64 6.43 29.41 14.19 29.41 27.48" class="cls-1"/><path d="M19.21,9.12a3.53,3.53,0,1,1,3.53-3.53A3.53,3.53,0,0,1,19.21,9.12Zm0-4.8a1.27,1.27,0,1,0,1.27,1.27A1.27,1.27,0,0,0,19.21,4.32Z" class="cls-1"/><polygon points="19.65 27.48 17.39 27.48 17.39 20.31 14.25 17.19 15.85 15.59 19.65 19.38 19.65 27.48" class="cls-1"/><path d="M13.36,18.22a3.53,3.53,0,1,1,3.53-3.53A3.53,3.53,0,0,1,13.36,18.22Zm0-4.8a1.27,1.27,0,1,0,1.27,1.27A1.27,1.27,0,0,0,13.36,13.42Z" class="cls-1"/><polygon points="89.28 27.48 87.02 27.48 87.02 20.97 92.8 16.1 92.8 7.83 95.06 7.83 95.06 17.15 89.28 22.02 89.28 27.48" class="cls-1"/><path d="M93.92,9a3.53,3.53,0,1,1,3.53-3.53A3.53,3.53,0,0,1,93.92,9Zm0-4.8A1.27,1.27,0,1,0,95.2,5.43,1.27,1.27,0,0,0,93.92,4.16Z" class="cls-1"/><polygon points="79.3 27.48 77.04 27.48 77.04 20.64 84.19 13.5 85.79 15.1 79.3 21.58 79.3 27.48" class="cls-1"/><path d="M86.69,16.13a3.53,3.53,0,1,1,3.53-3.53A3.53,3.53,0,0,1,86.69,16.13Zm0-4.79A1.27,1.27,0,1,0,88,12.6,1.27,1.27,0,0,0,86.69,11.33Z" class="cls-1"/><polygon points="69.28 27.48 67.03 27.48 67.03 14.48 59.48 6.94 61.08 5.34 69.28 13.55 69.28 27.48" class="cls-1"/><path d="M58.58,8a3.53,3.53,0,1,1,3.53-3.53A3.53,3.53,0,0,1,58.58,8Zm0-4.8a1.27,1.27,0,1,0,1.27,1.27A1.27,1.27,0,0,0,58.58,3.18Z" class="cls-1"/><rect width="2.26" height="8.17" x="57.06" y="86.46" class="cls-1"/><path d="M58.19,100.56A3.53,3.53,0,1,1,61.72,97,3.53,3.53,0,0,1,58.19,100.56Zm0-4.8A1.27,1.27,0,1,0,59.46,97,1.27,1.27,0,0,0,58.19,95.76Z" class="cls-1"/><polygon points="45.72 108.02 43.46 108.02 43.46 95.61 47.09 91.98 47.09 86.47 49.35 86.47 49.35 92.91 45.72 96.55 45.72 108.02" class="cls-1"/><path d="M44.59,113.95a3.53,3.53,0,1,1,3.53-3.53A3.53,3.53,0,0,1,44.59,113.95Zm0-4.79a1.27,1.27,0,1,0,1.27,1.27A1.27,1.27,0,0,0,44.59,109.15Z" class="cls-1"/><rect width="2.26" height="12.78" x="37.12" y="86.46" class="cls-1"/><path d="M38.25,105.17a3.53,3.53,0,1,1,3.53-3.53A3.53,3.53,0,0,1,38.25,105.17Zm0-4.79a1.27,1.27,0,1,0,1.27,1.27A1.27,1.27,0,0,0,38.25,100.37Z" class="cls-1"/><polygon points="21.64 107.52 20.05 105.92 27.15 98.83 27.15 86.47 29.41 86.47 29.41 99.76 21.64 107.52" class="cls-1"/><path d="M19.21,111.88a3.53,3.53,0,1,1,3.53-3.53A3.53,3.53,0,0,1,19.21,111.88Zm0-4.8a1.27,1.27,0,1,0,1.27,1.27A1.27,1.27,0,0,0,19.21,107.08Z" class="cls-1"/><polygon points="15.85 98.36 14.25 96.76 17.39 93.64 17.39 86.47 19.65 86.47 19.65 94.57 15.85 98.36" class="cls-1"/><path d="M13.36,102.79a3.53,3.53,0,1,1,3.53-3.53A3.53,3.53,0,0,1,13.36,102.79Zm0-4.8a1.27,1.27,0,1,0,1.27,1.27A1.27,1.27,0,0,0,13.36,98Z" class="cls-1"/><polygon points="95.06 106.12 92.8 106.12 92.8 97.85 87.02 92.98 87.02 86.47 89.28 86.47 89.28 91.93 95.06 96.8 95.06 106.12" class="cls-1"/><path d="M93.92,112a3.53,3.53,0,1,1,3.53-3.53A3.53,3.53,0,0,1,93.92,112Zm0-4.8a1.27,1.27,0,1,0,1.27,1.27A1.27,1.27,0,0,0,93.92,107.25Z" class="cls-1"/><polygon points="84.19 100.45 77.04 93.31 77.04 86.47 79.3 86.47 79.3 92.37 85.79 98.85 84.19 100.45" class="cls-1"/><path d="M86.69,104.88a3.53,3.53,0,1,1,3.53-3.53A3.53,3.53,0,0,1,86.69,104.88Zm0-4.79A1.27,1.27,0,1,0,88,101.35,1.27,1.27,0,0,0,86.69,100.08Z" class="cls-1"/><polygon points="61.08 108.6 59.48 107.01 67.03 99.47 67.03 86.47 69.28 86.47 69.28 100.4 61.08 108.6" class="cls-1"/><path d="M58.58,113a3.53,3.53,0,1,1,3.53-3.53A3.53,3.53,0,0,1,58.58,113Zm0-4.8a1.27,1.27,0,1,0,1.27,1.27A1.27,1.27,0,0,0,58.58,108.23Z" class="cls-1"/><path d="M107.91,28.72a4.24,4.24,0,0,0-3-1.24H4.24A4.24,4.24,0,0,0,0,31.72V82.23a4.24,4.24,0,0,0,4.24,4.24H104.91a4.25,4.25,0,0,0,3-1.24l10.85-10.85a4.23,4.23,0,0,0,1.24-3V42.57a4.23,4.23,0,0,0-1.24-3Zm-1.24,32.35a4.1,4.1,0,1,1,4.1-4.1A4.1,4.1,0,0,1,106.67,61.08Z" class="cls-2"/><rect width="73.85" height="38.12" x="16.41" y="37.93" class="cls-3"/><path d="M69.64,44.77a1,1,0,0,1-.49-.13,29,29,0,0,0-5.62-2.39,1,1,0,1,1,.58-1.92,31,31,0,0,1,6,2.55,1,1,0,0,1-.49,1.88Z" class="cls-1"/><path d="M59.74,41.34h-.16c-.52-.09-1.08-.16-1.7-.22a1,1,0,0,1,.2-2c.66.07,1.26.15,1.82.24a1,1,0,0,1-.16,2Z" class="cls-1"/><path d="M54.95,72.34a31.5,31.5,0,0,1-22.56-9.61,1,1,0,1,1,1.44-1.39,29.48,29.48,0,0,0,21.12,9c.61,0,1.24,0,1.86-.06a1,1,0,0,1,.13,2C56.27,72.32,55.6,72.34,54.95,72.34Z" class="cls-1"/><path d="M60.53,71.82a1,1,0,0,1-.18-2,29.08,29.08,0,0,0,5.51-1.61,1,1,0,1,1,.75,1.86,31.15,31.15,0,0,1-5.89,1.72Z" class="cls-1"/><path d="M54.95,44.92a25.32,25.32,0,0,0-20.7,10.73,25.34,25.34,0,0,0,41.41,0A25.32,25.32,0,0,0,54.95,44.92Z" class="cls-4"/><circle cx="54.95" cy="55.65" r="10.73" class="cls-5"/><circle cx="54.95" cy="55.65" r="5.07" class="cls-6"/><circle cx="51.36" cy="52.06" r="2.62" class="cls-3"/><circle cx="51.36" cy="56.7" r=".93" class="cls-3"/></g></g></svg>