<svg xmlns="http://www.w3.org/2000/svg" xmlns:xlink="http://www.w3.org/1999/xlink" id="Layer_1" x="0" y="0" version="1.1" viewBox="0 0 96 96" xml:space="preserve" style="enable-background:new 0 0 96 96"><style type="text/css">.st0{fill:#333}</style><g id="XMLID_1_"><path id="XMLID_6_" d="M68.9,20.1h-9.3c0-2.6-2.1-4.6-4.6-4.6H41c-2.6,0-4.6,2.1-4.6,4.6h-9.3c-2.6,0-4.6,2.1-4.6,4.6 v4.6c0,2.6,2.1,4.6,4.6,4.6v41.8c0,2.6,2.1,4.6,4.6,4.6h32.5c2.6,0,4.6-2.1,4.6-4.6V34.1c2.6,0,4.6-2.1,4.6-4.6v-4.6 C73.5,22.2,71.4,20.1,68.9,20.1z M64.3,75.9H31.8V34.1h4.6v37.1H41V34.1h4.6v37.1h4.6V34.1H55v37.1h4.6V34.1h4.6V75.9z M68.9,29.4 H27.1v-4.6h41.8V29.4z" class="st0"/></g></svg>